<mxfile host="app.diagrams.net" agent="Mozilla/5.0 (Windows NT 10.0; Win64; x64; rv:135.0) Gecko/20100101 Firefox/135.0" version="24.8.4">
  <diagram id="C5RBs43oDa-KdzZeNtuy" name="Page-1">
    <mxGraphModel dx="1510" dy="1528" grid="1" gridSize="10" guides="1" tooltips="1" connect="1" arrows="1" fold="1" page="1" pageScale="1" pageWidth="827" pageHeight="1169" math="0" shadow="0">
      <root>
        <mxCell id="WIyWlLk6GJQsqaUBKTNV-0" />
        <mxCell id="WIyWlLk6GJQsqaUBKTNV-1" parent="WIyWlLk6GJQsqaUBKTNV-0" />
        <mxCell id="kCq6hueEpDmsDVVyhzow-49" value="" style="rounded=0;whiteSpace=wrap;html=1;fillColor=none;dashed=1;dashPattern=8 8;" parent="WIyWlLk6GJQsqaUBKTNV-1" vertex="1">
          <mxGeometry x="-50" y="870" width="540" height="270" as="geometry" />
        </mxCell>
        <mxCell id="kCq6hueEpDmsDVVyhzow-27" value="" style="group" parent="WIyWlLk6GJQsqaUBKTNV-1" vertex="1" connectable="0">
          <mxGeometry x="-70" y="40" width="610" height="430" as="geometry" />
        </mxCell>
        <mxCell id="kCq6hueEpDmsDVVyhzow-25" value="" style="rounded=0;whiteSpace=wrap;html=1;fillColor=none;dashed=1;" parent="kCq6hueEpDmsDVVyhzow-27" vertex="1">
          <mxGeometry y="30" width="610" height="400" as="geometry" />
        </mxCell>
        <mxCell id="kCq6hueEpDmsDVVyhzow-26" value="Object initialization" style="text;strokeColor=none;fillColor=none;align=left;verticalAlign=middle;spacingLeft=4;spacingRight=4;overflow=hidden;points=[[0,0.5],[1,0.5]];portConstraint=eastwest;rotatable=0;whiteSpace=wrap;html=1;" parent="kCq6hueEpDmsDVVyhzow-27" vertex="1">
          <mxGeometry width="190" height="30" as="geometry" />
        </mxCell>
        <mxCell id="kCq6hueEpDmsDVVyhzow-54" value="TCurve()" style="text;strokeColor=none;fillColor=none;align=left;verticalAlign=middle;spacingLeft=4;spacingRight=4;overflow=hidden;points=[[0,0.5],[1,0.5]];portConstraint=eastwest;rotatable=0;whiteSpace=wrap;html=1;" parent="kCq6hueEpDmsDVVyhzow-27" vertex="1">
          <mxGeometry x="360" y="30" width="80" height="30" as="geometry" />
        </mxCell>
        <mxCell id="kCq6hueEpDmsDVVyhzow-55" value="tcurve.setAcceleration(float acceleration)" style="text;strokeColor=none;fillColor=none;align=left;verticalAlign=middle;spacingLeft=4;spacingRight=4;overflow=hidden;points=[[0,0.5],[1,0.5]];portConstraint=eastwest;rotatable=0;whiteSpace=wrap;html=1;" parent="kCq6hueEpDmsDVVyhzow-27" vertex="1">
          <mxGeometry x="360" y="120" width="240" height="30" as="geometry" />
        </mxCell>
        <mxCell id="kCq6hueEpDmsDVVyhzow-8" value="" style="group" parent="kCq6hueEpDmsDVVyhzow-27" vertex="1" connectable="0">
          <mxGeometry x="230" y="90" width="280" height="40" as="geometry" />
        </mxCell>
        <mxCell id="kCq6hueEpDmsDVVyhzow-1" value="Set maximal Values" style="rounded=1;whiteSpace=wrap;html=1;fontSize=12;glass=0;strokeWidth=1;shadow=0;" parent="kCq6hueEpDmsDVVyhzow-8" vertex="1">
          <mxGeometry width="120" height="40" as="geometry" />
        </mxCell>
        <mxCell id="kCq6hueEpDmsDVVyhzow-6" value="Acceleration / velocity" style="text;strokeColor=none;fillColor=none;align=left;verticalAlign=middle;spacingLeft=4;spacingRight=4;overflow=hidden;points=[[0,0.5],[1,0.5]];portConstraint=eastwest;rotatable=0;whiteSpace=wrap;html=1;" parent="kCq6hueEpDmsDVVyhzow-8" vertex="1">
          <mxGeometry x="130" y="5" width="150" height="30" as="geometry" />
        </mxCell>
        <mxCell id="kCq6hueEpDmsDVVyhzow-56" value="tcurve.setMaxVelocity(float velocity)" style="text;strokeColor=none;fillColor=none;align=left;verticalAlign=middle;spacingLeft=4;spacingRight=4;overflow=hidden;points=[[0,0.5],[1,0.5]];portConstraint=eastwest;rotatable=0;whiteSpace=wrap;html=1;" parent="kCq6hueEpDmsDVVyhzow-27" vertex="1">
          <mxGeometry x="360" y="140" width="240" height="30" as="geometry" />
        </mxCell>
        <mxCell id="kCq6hueEpDmsDVVyhzow-57" value="tcurve.set_type(TCurveType type)" style="text;strokeColor=none;fillColor=none;align=left;verticalAlign=middle;spacingLeft=4;spacingRight=4;overflow=hidden;points=[[0,0.5],[1,0.5]];portConstraint=eastwest;rotatable=0;whiteSpace=wrap;html=1;" parent="kCq6hueEpDmsDVVyhzow-27" vertex="1">
          <mxGeometry x="350" y="270" width="240" height="30" as="geometry" />
        </mxCell>
        <mxCell id="kCq6hueEpDmsDVVyhzow-63" value="TCurveError NotAValidCurveType" style="text;strokeColor=none;fillColor=none;align=left;verticalAlign=middle;spacingLeft=4;spacingRight=4;overflow=hidden;points=[[0,0.5],[1,0.5]];portConstraint=eastwest;rotatable=0;whiteSpace=wrap;html=1;" parent="kCq6hueEpDmsDVVyhzow-27" vertex="1">
          <mxGeometry x="10" y="380" width="240" height="30" as="geometry" />
        </mxCell>
        <mxCell id="kCq6hueEpDmsDVVyhzow-64" value="TCurveError InvalidSetting" style="text;strokeColor=none;fillColor=none;align=left;verticalAlign=middle;spacingLeft=4;spacingRight=4;overflow=hidden;points=[[0,0.5],[1,0.5]];portConstraint=eastwest;rotatable=0;whiteSpace=wrap;html=1;" parent="kCq6hueEpDmsDVVyhzow-27" vertex="1">
          <mxGeometry x="20" y="190" width="240" height="30" as="geometry" />
        </mxCell>
        <mxCell id="lM-VsxSfwzmTbYvEkeVL-0" value="Curently not implemented" style="whiteSpace=wrap;html=1;" vertex="1" parent="kCq6hueEpDmsDVVyhzow-27">
          <mxGeometry x="50" y="230" width="330" height="160" as="geometry" />
        </mxCell>
        <mxCell id="WIyWlLk6GJQsqaUBKTNV-2" value="" style="rounded=0;html=1;jettySize=auto;orthogonalLoop=1;fontSize=11;endArrow=block;endFill=0;endSize=8;strokeWidth=1;shadow=0;labelBackgroundColor=none;edgeStyle=orthogonalEdgeStyle;entryX=0.5;entryY=0;entryDx=0;entryDy=0;" parent="WIyWlLk6GJQsqaUBKTNV-1" source="WIyWlLk6GJQsqaUBKTNV-3" target="kCq6hueEpDmsDVVyhzow-0" edge="1">
          <mxGeometry relative="1" as="geometry">
            <mxPoint x="220" y="70" as="targetPoint" />
          </mxGeometry>
        </mxCell>
        <mxCell id="WIyWlLk6GJQsqaUBKTNV-3" value="Include TCurve" style="rounded=1;whiteSpace=wrap;html=1;fontSize=12;glass=0;strokeWidth=1;shadow=0;" parent="WIyWlLk6GJQsqaUBKTNV-1" vertex="1">
          <mxGeometry x="160" y="-30" width="120" height="40" as="geometry" />
        </mxCell>
        <mxCell id="kCq6hueEpDmsDVVyhzow-2" style="edgeStyle=orthogonalEdgeStyle;rounded=0;orthogonalLoop=1;jettySize=auto;html=1;" parent="WIyWlLk6GJQsqaUBKTNV-1" source="kCq6hueEpDmsDVVyhzow-0" target="kCq6hueEpDmsDVVyhzow-1" edge="1">
          <mxGeometry relative="1" as="geometry" />
        </mxCell>
        <mxCell id="kCq6hueEpDmsDVVyhzow-0" value="Create object instance" style="rounded=1;whiteSpace=wrap;html=1;fontSize=12;glass=0;strokeWidth=1;shadow=0;" parent="WIyWlLk6GJQsqaUBKTNV-1" vertex="1">
          <mxGeometry x="160" y="50" width="120" height="40" as="geometry" />
        </mxCell>
        <mxCell id="kCq6hueEpDmsDVVyhzow-4" style="edgeStyle=orthogonalEdgeStyle;rounded=0;orthogonalLoop=1;jettySize=auto;html=1;" parent="WIyWlLk6GJQsqaUBKTNV-1" source="kCq6hueEpDmsDVVyhzow-1" edge="1">
          <mxGeometry relative="1" as="geometry">
            <mxPoint x="220" y="190" as="targetPoint" />
          </mxGeometry>
        </mxCell>
        <mxCell id="kCq6hueEpDmsDVVyhzow-7" value="" style="group" parent="WIyWlLk6GJQsqaUBKTNV-1" vertex="1" connectable="0">
          <mxGeometry x="160" y="280" width="270" height="40" as="geometry" />
        </mxCell>
        <mxCell id="kCq6hueEpDmsDVVyhzow-3" value="Set TCurve type" style="rounded=1;whiteSpace=wrap;html=1;fontSize=12;glass=0;strokeWidth=1;shadow=0;" parent="kCq6hueEpDmsDVVyhzow-7" vertex="1">
          <mxGeometry width="120" height="40" as="geometry" />
        </mxCell>
        <mxCell id="kCq6hueEpDmsDVVyhzow-5" value="TCurve / SCurve" style="text;strokeColor=none;fillColor=none;align=left;verticalAlign=middle;spacingLeft=4;spacingRight=4;overflow=hidden;points=[[0,0.5],[1,0.5]];portConstraint=eastwest;rotatable=0;whiteSpace=wrap;html=1;" parent="kCq6hueEpDmsDVVyhzow-7" vertex="1">
          <mxGeometry x="120" y="5" width="150" height="30" as="geometry" />
        </mxCell>
        <mxCell id="kCq6hueEpDmsDVVyhzow-10" style="edgeStyle=orthogonalEdgeStyle;rounded=0;orthogonalLoop=1;jettySize=auto;html=1;entryX=0.5;entryY=0;entryDx=0;entryDy=0;" parent="WIyWlLk6GJQsqaUBKTNV-1" source="kCq6hueEpDmsDVVyhzow-9" target="kCq6hueEpDmsDVVyhzow-3" edge="1">
          <mxGeometry relative="1" as="geometry" />
        </mxCell>
        <mxCell id="kCq6hueEpDmsDVVyhzow-11" value="Data ok" style="edgeLabel;html=1;align=center;verticalAlign=middle;resizable=0;points=[];" parent="kCq6hueEpDmsDVVyhzow-10" vertex="1" connectable="0">
          <mxGeometry x="-0.1467" y="1" relative="1" as="geometry">
            <mxPoint as="offset" />
          </mxGeometry>
        </mxCell>
        <mxCell id="kCq6hueEpDmsDVVyhzow-13" style="edgeStyle=orthogonalEdgeStyle;rounded=0;orthogonalLoop=1;jettySize=auto;html=1;entryX=1;entryY=0.5;entryDx=0;entryDy=0;" parent="WIyWlLk6GJQsqaUBKTNV-1" source="kCq6hueEpDmsDVVyhzow-9" target="kCq6hueEpDmsDVVyhzow-12" edge="1">
          <mxGeometry relative="1" as="geometry" />
        </mxCell>
        <mxCell id="kCq6hueEpDmsDVVyhzow-18" value="&lt;div&gt;&amp;lt; 0&lt;/div&gt;" style="edgeLabel;html=1;align=center;verticalAlign=middle;resizable=0;points=[];" parent="kCq6hueEpDmsDVVyhzow-13" vertex="1" connectable="0">
          <mxGeometry x="-0.0667" relative="1" as="geometry">
            <mxPoint as="offset" />
          </mxGeometry>
        </mxCell>
        <mxCell id="kCq6hueEpDmsDVVyhzow-9" value="Validation" style="rhombus;whiteSpace=wrap;html=1;" parent="WIyWlLk6GJQsqaUBKTNV-1" vertex="1">
          <mxGeometry x="180" y="190" width="80" height="40" as="geometry" />
        </mxCell>
        <mxCell id="kCq6hueEpDmsDVVyhzow-14" style="edgeStyle=orthogonalEdgeStyle;rounded=0;orthogonalLoop=1;jettySize=auto;html=1;entryX=0;entryY=0.5;entryDx=0;entryDy=0;" parent="WIyWlLk6GJQsqaUBKTNV-1" source="kCq6hueEpDmsDVVyhzow-12" target="kCq6hueEpDmsDVVyhzow-1" edge="1">
          <mxGeometry relative="1" as="geometry">
            <mxPoint x="100" y="130" as="targetPoint" />
            <Array as="points">
              <mxPoint x="60" y="150" />
            </Array>
          </mxGeometry>
        </mxCell>
        <mxCell id="kCq6hueEpDmsDVVyhzow-15" value="Let user redefine values" style="edgeLabel;html=1;align=center;verticalAlign=middle;resizable=0;points=[];" parent="kCq6hueEpDmsDVVyhzow-14" vertex="1" connectable="0">
          <mxGeometry x="-0.7333" relative="1" as="geometry">
            <mxPoint y="-26" as="offset" />
          </mxGeometry>
        </mxCell>
        <mxCell id="kCq6hueEpDmsDVVyhzow-12" value="Return error" style="rounded=1;whiteSpace=wrap;html=1;" parent="WIyWlLk6GJQsqaUBKTNV-1" vertex="1">
          <mxGeometry y="195" width="120" height="30" as="geometry" />
        </mxCell>
        <mxCell id="kCq6hueEpDmsDVVyhzow-19" style="edgeStyle=orthogonalEdgeStyle;rounded=0;orthogonalLoop=1;jettySize=auto;html=1;entryX=1.019;entryY=0.511;entryDx=0;entryDy=0;entryPerimeter=0;" parent="WIyWlLk6GJQsqaUBKTNV-1" source="kCq6hueEpDmsDVVyhzow-16" target="kCq6hueEpDmsDVVyhzow-20" edge="1">
          <mxGeometry relative="1" as="geometry">
            <mxPoint x="130" y="400" as="targetPoint" />
          </mxGeometry>
        </mxCell>
        <mxCell id="kCq6hueEpDmsDVVyhzow-22" value="Not ok" style="edgeLabel;html=1;align=center;verticalAlign=middle;resizable=0;points=[];" parent="kCq6hueEpDmsDVVyhzow-19" vertex="1" connectable="0">
          <mxGeometry x="0.0575" relative="1" as="geometry">
            <mxPoint as="offset" />
          </mxGeometry>
        </mxCell>
        <mxCell id="kCq6hueEpDmsDVVyhzow-16" value="Validation" style="rhombus;whiteSpace=wrap;html=1;" parent="WIyWlLk6GJQsqaUBKTNV-1" vertex="1">
          <mxGeometry x="180" y="380" width="80" height="40" as="geometry" />
        </mxCell>
        <mxCell id="kCq6hueEpDmsDVVyhzow-17" style="edgeStyle=orthogonalEdgeStyle;rounded=0;orthogonalLoop=1;jettySize=auto;html=1;entryX=0.5;entryY=0;entryDx=0;entryDy=0;" parent="WIyWlLk6GJQsqaUBKTNV-1" target="kCq6hueEpDmsDVVyhzow-16" edge="1">
          <mxGeometry relative="1" as="geometry">
            <mxPoint x="220" y="320" as="sourcePoint" />
            <mxPoint x="231" y="370" as="targetPoint" />
          </mxGeometry>
        </mxCell>
        <mxCell id="kCq6hueEpDmsDVVyhzow-21" style="edgeStyle=orthogonalEdgeStyle;rounded=0;orthogonalLoop=1;jettySize=auto;html=1;entryX=0;entryY=0.5;entryDx=0;entryDy=0;" parent="WIyWlLk6GJQsqaUBKTNV-1" source="kCq6hueEpDmsDVVyhzow-20" target="kCq6hueEpDmsDVVyhzow-3" edge="1">
          <mxGeometry relative="1" as="geometry">
            <Array as="points">
              <mxPoint x="50" y="300" />
            </Array>
          </mxGeometry>
        </mxCell>
        <mxCell id="kCq6hueEpDmsDVVyhzow-20" value="Return error" style="rounded=1;whiteSpace=wrap;html=1;" parent="WIyWlLk6GJQsqaUBKTNV-1" vertex="1">
          <mxGeometry x="-10" y="385" width="120" height="30" as="geometry" />
        </mxCell>
        <mxCell id="kCq6hueEpDmsDVVyhzow-23" value="Check if value for max velocity is set in case of TCurve" style="text;strokeColor=none;fillColor=none;align=left;verticalAlign=middle;spacingLeft=4;spacingRight=4;overflow=hidden;points=[[0,0.5],[1,0.5]];portConstraint=eastwest;rotatable=0;whiteSpace=wrap;html=1;" parent="WIyWlLk6GJQsqaUBKTNV-1" vertex="1">
          <mxGeometry x="280" y="390" width="180" height="30" as="geometry" />
        </mxCell>
        <mxCell id="kCq6hueEpDmsDVVyhzow-31" style="edgeStyle=orthogonalEdgeStyle;rounded=0;orthogonalLoop=1;jettySize=auto;html=1;entryX=0.5;entryY=0;entryDx=0;entryDy=0;" parent="WIyWlLk6GJQsqaUBKTNV-1" source="kCq6hueEpDmsDVVyhzow-28" target="kCq6hueEpDmsDVVyhzow-30" edge="1">
          <mxGeometry relative="1" as="geometry" />
        </mxCell>
        <mxCell id="kCq6hueEpDmsDVVyhzow-28" value="Set difference" style="rounded=1;whiteSpace=wrap;html=1;" parent="WIyWlLk6GJQsqaUBKTNV-1" vertex="1">
          <mxGeometry x="160" y="510" width="120" height="30" as="geometry" />
        </mxCell>
        <mxCell id="kCq6hueEpDmsDVVyhzow-29" value="" style="endArrow=classic;html=1;rounded=0;exitX=0.5;exitY=1;exitDx=0;exitDy=0;entryX=0.5;entryY=0;entryDx=0;entryDy=0;" parent="WIyWlLk6GJQsqaUBKTNV-1" source="kCq6hueEpDmsDVVyhzow-16" target="kCq6hueEpDmsDVVyhzow-28" edge="1">
          <mxGeometry width="50" height="50" relative="1" as="geometry">
            <mxPoint x="400" y="520" as="sourcePoint" />
            <mxPoint x="310" y="510" as="targetPoint" />
          </mxGeometry>
        </mxCell>
        <mxCell id="kCq6hueEpDmsDVVyhzow-33" style="edgeStyle=orthogonalEdgeStyle;rounded=0;orthogonalLoop=1;jettySize=auto;html=1;entryX=1;entryY=0.5;entryDx=0;entryDy=0;" parent="WIyWlLk6GJQsqaUBKTNV-1" source="kCq6hueEpDmsDVVyhzow-30" target="kCq6hueEpDmsDVVyhzow-32" edge="1">
          <mxGeometry relative="1" as="geometry" />
        </mxCell>
        <mxCell id="kCq6hueEpDmsDVVyhzow-30" value="Validation" style="rhombus;whiteSpace=wrap;html=1;" parent="WIyWlLk6GJQsqaUBKTNV-1" vertex="1">
          <mxGeometry x="180" y="590" width="80" height="40" as="geometry" />
        </mxCell>
        <mxCell id="kCq6hueEpDmsDVVyhzow-34" style="edgeStyle=orthogonalEdgeStyle;rounded=0;orthogonalLoop=1;jettySize=auto;html=1;entryX=-0.005;entryY=0.353;entryDx=0;entryDy=0;entryPerimeter=0;" parent="WIyWlLk6GJQsqaUBKTNV-1" target="kCq6hueEpDmsDVVyhzow-28" edge="1">
          <mxGeometry relative="1" as="geometry">
            <mxPoint x="-10" y="600" as="sourcePoint" />
            <mxPoint x="50" y="510" as="targetPoint" />
            <Array as="points">
              <mxPoint x="-10" y="601" />
              <mxPoint x="30" y="601" />
              <mxPoint x="30" y="521" />
            </Array>
          </mxGeometry>
        </mxCell>
        <mxCell id="kCq6hueEpDmsDVVyhzow-32" value="Return error" style="rounded=1;whiteSpace=wrap;html=1;" parent="WIyWlLk6GJQsqaUBKTNV-1" vertex="1">
          <mxGeometry x="-20" y="595" width="120" height="30" as="geometry" />
        </mxCell>
        <mxCell id="kCq6hueEpDmsDVVyhzow-40" style="edgeStyle=orthogonalEdgeStyle;rounded=0;orthogonalLoop=1;jettySize=auto;html=1;entryX=0.5;entryY=0;entryDx=0;entryDy=0;" parent="WIyWlLk6GJQsqaUBKTNV-1" source="kCq6hueEpDmsDVVyhzow-35" target="kCq6hueEpDmsDVVyhzow-39" edge="1">
          <mxGeometry relative="1" as="geometry" />
        </mxCell>
        <mxCell id="kCq6hueEpDmsDVVyhzow-35" value="Ask for value in time" style="rounded=1;whiteSpace=wrap;html=1;" parent="WIyWlLk6GJQsqaUBKTNV-1" vertex="1">
          <mxGeometry x="125" y="890" width="190" height="40" as="geometry" />
        </mxCell>
        <mxCell id="kCq6hueEpDmsDVVyhzow-36" style="edgeStyle=orthogonalEdgeStyle;rounded=0;orthogonalLoop=1;jettySize=auto;html=1;entryX=0.519;entryY=0.044;entryDx=0;entryDy=0;entryPerimeter=0;" parent="WIyWlLk6GJQsqaUBKTNV-1" source="kCq6hueEpDmsDVVyhzow-30" target="kCq6hueEpDmsDVVyhzow-51" edge="1">
          <mxGeometry relative="1" as="geometry" />
        </mxCell>
        <mxCell id="kCq6hueEpDmsDVVyhzow-37" value="Return value" style="rounded=1;whiteSpace=wrap;html=1;" parent="WIyWlLk6GJQsqaUBKTNV-1" vertex="1">
          <mxGeometry x="120" y="1070" width="200" height="40" as="geometry" />
        </mxCell>
        <mxCell id="kCq6hueEpDmsDVVyhzow-41" style="edgeStyle=orthogonalEdgeStyle;rounded=0;orthogonalLoop=1;jettySize=auto;html=1;" parent="WIyWlLk6GJQsqaUBKTNV-1" source="kCq6hueEpDmsDVVyhzow-39" edge="1">
          <mxGeometry relative="1" as="geometry">
            <mxPoint x="220" y="1070" as="targetPoint" />
          </mxGeometry>
        </mxCell>
        <mxCell id="kCq6hueEpDmsDVVyhzow-47" value="Yes" style="edgeLabel;html=1;align=center;verticalAlign=middle;resizable=0;points=[];" parent="kCq6hueEpDmsDVVyhzow-41" vertex="1" connectable="0">
          <mxGeometry x="-0.0681" y="2" relative="1" as="geometry">
            <mxPoint as="offset" />
          </mxGeometry>
        </mxCell>
        <mxCell id="kCq6hueEpDmsDVVyhzow-42" style="edgeStyle=orthogonalEdgeStyle;rounded=0;orthogonalLoop=1;jettySize=auto;html=1;entryX=0;entryY=0.5;entryDx=0;entryDy=0;" parent="WIyWlLk6GJQsqaUBKTNV-1" source="kCq6hueEpDmsDVVyhzow-43" target="kCq6hueEpDmsDVVyhzow-35" edge="1">
          <mxGeometry relative="1" as="geometry">
            <Array as="points">
              <mxPoint x="70" y="910" />
            </Array>
          </mxGeometry>
        </mxCell>
        <mxCell id="kCq6hueEpDmsDVVyhzow-39" value="Validation" style="rhombus;whiteSpace=wrap;html=1;" parent="WIyWlLk6GJQsqaUBKTNV-1" vertex="1">
          <mxGeometry x="180" y="970" width="80" height="40" as="geometry" />
        </mxCell>
        <mxCell id="kCq6hueEpDmsDVVyhzow-44" value="" style="edgeStyle=orthogonalEdgeStyle;rounded=0;orthogonalLoop=1;jettySize=auto;html=1;entryX=1.018;entryY=0.647;entryDx=0;entryDy=0;entryPerimeter=0;" parent="WIyWlLk6GJQsqaUBKTNV-1" source="kCq6hueEpDmsDVVyhzow-39" target="kCq6hueEpDmsDVVyhzow-43" edge="1">
          <mxGeometry relative="1" as="geometry">
            <mxPoint x="180" y="990" as="sourcePoint" />
            <mxPoint x="125" y="910" as="targetPoint" />
            <Array as="points" />
          </mxGeometry>
        </mxCell>
        <mxCell id="kCq6hueEpDmsDVVyhzow-46" value="No" style="edgeLabel;html=1;align=center;verticalAlign=middle;resizable=0;points=[];" parent="kCq6hueEpDmsDVVyhzow-44" vertex="1" connectable="0">
          <mxGeometry x="-0.1292" relative="1" as="geometry">
            <mxPoint as="offset" />
          </mxGeometry>
        </mxCell>
        <mxCell id="kCq6hueEpDmsDVVyhzow-43" value="Return error" style="rounded=1;whiteSpace=wrap;html=1;" parent="WIyWlLk6GJQsqaUBKTNV-1" vertex="1">
          <mxGeometry x="-10" y="970" width="120" height="30" as="geometry" />
        </mxCell>
        <mxCell id="kCq6hueEpDmsDVVyhzow-48" value="Is time in range 0 - t_max?" style="text;strokeColor=none;fillColor=none;align=left;verticalAlign=middle;spacingLeft=4;spacingRight=4;overflow=hidden;points=[[0,0.5],[1,0.5]];portConstraint=eastwest;rotatable=0;whiteSpace=wrap;html=1;" parent="WIyWlLk6GJQsqaUBKTNV-1" vertex="1">
          <mxGeometry x="280" y="975" width="300" height="30" as="geometry" />
        </mxCell>
        <mxCell id="kCq6hueEpDmsDVVyhzow-50" value="" style="rounded=0;whiteSpace=wrap;html=1;fillColor=none;dashed=1;dashPattern=8 8;" parent="WIyWlLk6GJQsqaUBKTNV-1" vertex="1">
          <mxGeometry x="-30" y="500" width="490" height="300" as="geometry" />
        </mxCell>
        <mxCell id="kCq6hueEpDmsDVVyhzow-51" value="Calculate type of curve and important times" style="rounded=1;whiteSpace=wrap;html=1;" parent="WIyWlLk6GJQsqaUBKTNV-1" vertex="1">
          <mxGeometry x="90" y="710" width="250" height="50" as="geometry" />
        </mxCell>
        <mxCell id="kCq6hueEpDmsDVVyhzow-52" style="edgeStyle=orthogonalEdgeStyle;rounded=0;orthogonalLoop=1;jettySize=auto;html=1;entryX=0.474;entryY=0.075;entryDx=0;entryDy=0;entryPerimeter=0;" parent="WIyWlLk6GJQsqaUBKTNV-1" source="kCq6hueEpDmsDVVyhzow-51" target="kCq6hueEpDmsDVVyhzow-35" edge="1">
          <mxGeometry relative="1" as="geometry" />
        </mxCell>
        <mxCell id="kCq6hueEpDmsDVVyhzow-53" value="Setting up object" style="text;strokeColor=none;fillColor=none;align=left;verticalAlign=middle;spacingLeft=4;spacingRight=4;overflow=hidden;points=[[0,0.5],[1,0.5]];portConstraint=eastwest;rotatable=0;whiteSpace=wrap;html=1;" parent="WIyWlLk6GJQsqaUBKTNV-1" vertex="1">
          <mxGeometry x="-35" y="470" width="150" height="30" as="geometry" />
        </mxCell>
        <mxCell id="kCq6hueEpDmsDVVyhzow-58" value="tcurve.set_phi(float value)" style="text;strokeColor=none;fillColor=none;align=left;verticalAlign=middle;spacingLeft=4;spacingRight=4;overflow=hidden;points=[[0,0.5],[1,0.5]];portConstraint=eastwest;rotatable=0;whiteSpace=wrap;html=1;" parent="WIyWlLk6GJQsqaUBKTNV-1" vertex="1">
          <mxGeometry x="280" y="510" width="240" height="30" as="geometry" />
        </mxCell>
        <mxCell id="kCq6hueEpDmsDVVyhzow-59" value="tcurve.recalculate()" style="text;strokeColor=none;fillColor=none;align=left;verticalAlign=middle;spacingLeft=4;spacingRight=4;overflow=hidden;points=[[0,0.5],[1,0.5]];portConstraint=eastwest;rotatable=0;whiteSpace=wrap;html=1;" parent="WIyWlLk6GJQsqaUBKTNV-1" vertex="1">
          <mxGeometry x="340" y="720" width="240" height="30" as="geometry" />
        </mxCell>
        <mxCell id="kCq6hueEpDmsDVVyhzow-60" value="tcurve.get_value(float time)" style="text;strokeColor=none;fillColor=none;align=left;verticalAlign=middle;spacingLeft=4;spacingRight=4;overflow=hidden;points=[[0,0.5],[1,0.5]];portConstraint=eastwest;rotatable=0;whiteSpace=wrap;html=1;" parent="WIyWlLk6GJQsqaUBKTNV-1" vertex="1">
          <mxGeometry x="320" y="895" width="240" height="30" as="geometry" />
        </mxCell>
        <mxCell id="kCq6hueEpDmsDVVyhzow-61" value="TCurveError TimeOutOfRange" style="text;strokeColor=none;fillColor=none;align=left;verticalAlign=middle;spacingLeft=4;spacingRight=4;overflow=hidden;points=[[0,0.5],[1,0.5]];portConstraint=eastwest;rotatable=0;whiteSpace=wrap;html=1;" parent="WIyWlLk6GJQsqaUBKTNV-1" vertex="1">
          <mxGeometry x="-20" y="1005" width="240" height="30" as="geometry" />
        </mxCell>
        <mxCell id="kCq6hueEpDmsDVVyhzow-62" value="TCurveError MustBeNonZeroFinite" style="text;strokeColor=none;fillColor=none;align=left;verticalAlign=middle;spacingLeft=4;spacingRight=4;overflow=hidden;points=[[0,0.5],[1,0.5]];portConstraint=eastwest;rotatable=0;whiteSpace=wrap;html=1;" parent="WIyWlLk6GJQsqaUBKTNV-1" vertex="1">
          <mxGeometry x="-20" y="630" width="240" height="30" as="geometry" />
        </mxCell>
      </root>
    </mxGraphModel>
  </diagram>
</mxfile>
